<svg id="Capa_1" enable-background="new 0 0 512 512" height="512" viewBox="0 0 512 512" width="512" xmlns="http://www.w3.org/2000/svg"><g><path d="m336.126 196.421 20.923 70.919h27.487l19.877-71.052 14.573 74.525 29.443-5.758-27.032-138.23-28.733.107-22.272 79.614-23.507-79.675h-28.726l-24.914 138.448 29.526 5.313z"/><path d="m265.666 239.49h-39.917v-113.897h-30v143.897h69.917z"/><path d="m120.065 269.403c25.19 0 45.684-20.494 45.684-45.684 0-14.106-6.429-26.736-16.508-35.123 3.968-6.334 6.272-13.812 6.272-21.821 0-22.734-18.496-41.229-41.23-41.229h-48.113v144.06l15.066-.067c.306-.002 30.555-.136 38.829-.136zm0-30c-4.397 0-14.9.037-23.895.073v-31.417c2.059-.008 23.895-.023 23.895-.023 8.648 0 15.684 7.036 15.684 15.684s-7.036 15.683-15.684 15.683zm-23.895-83.858h18.112c6.192 0 11.23 5.038 11.23 11.229 0 6.192-5.038 11.23-11.23 11.23-2.461 0-18.112.031-18.112.031z"/><path d="m511.215 0h-510.43v395.083h201.967v116.917h106.496v-116.917h201.967zm-231.967 482h-46.496v-86.917h46.496zm201.967-116.917h-450.43v-335.083h450.43z"/></g></svg>